<?xml version="1.0" encoding="UTF-8" standalone="no"?>
<!-- Created with Inkscape (http://www.inkscape.org/) -->

<svg
   xmlns:dc="http://purl.org/dc/elements/1.1/"
   xmlns:cc="http://creativecommons.org/ns#"
   xmlns:rdf="http://www.w3.org/1999/02/22-rdf-syntax-ns#"
   xmlns:svg="http://www.w3.org/2000/svg"
   xmlns="http://www.w3.org/2000/svg"
   xmlns:sodipodi="http://sodipodi.sourceforge.net/DTD/sodipodi-0.dtd"
   xmlns:inkscape="http://www.inkscape.org/namespaces/inkscape"
   version="1.1"
   id="svg2"
   xml:space="preserve"
   width="354.66666"
   height="190.66667"
   viewBox="0 0 354.66666 190.66667"
   sodipodi:docname="Current_schemata_pure.svg"
   inkscape:version="0.92.3 (2405546, 2018-03-11)"><metadata
     id="metadata8"><rdf:RDF><cc:Work
         rdf:about=""><dc:format>image/svg+xml</dc:format><dc:type
           rdf:resource="http://purl.org/dc/dcmitype/StillImage" /><dc:title></dc:title></cc:Work></rdf:RDF></metadata><defs
     id="defs6"><clipPath
       clipPathUnits="userSpaceOnUse"
       id="clipPath22"><path
         d="M 292.5,159.18 H 2600.82 V 1342.5 H 292.5 Z"
         id="path20"
         inkscape:connector-curvature="0" /></clipPath><clipPath
       clipPathUnits="userSpaceOnUse"
       id="clipPath8840"><path
         d="M 292.5,159.18 H 2600.82 V 1342.5 H 292.5 Z"
         id="path8838"
         inkscape:connector-curvature="0" /></clipPath><clipPath
       clipPathUnits="userSpaceOnUse"
       id="clipPath9202"><path
         d="m 1816,1004 v 106 h 689 v -106 z"
         id="path9200"
         inkscape:connector-curvature="0" /></clipPath></defs><sodipodi:namedview
     pagecolor="#ffffff"
     bordercolor="#666666"
     borderopacity="1"
     objecttolerance="10"
     gridtolerance="10"
     guidetolerance="10"
     inkscape:pageopacity="0"
     inkscape:pageshadow="2"
     inkscape:window-width="1920"
     inkscape:window-height="986"
     id="namedview4"
     showgrid="false"
     inkscape:zoom="3.3255286"
     inkscape:cx="100.64772"
     inkscape:cy="70.219778"
     inkscape:window-x="-11"
     inkscape:window-y="-11"
     inkscape:window-maximized="1"
     inkscape:current-layer="g12" /><g
     id="g10"
     inkscape:groupmode="layer"
     inkscape:label="ink_ext_XXXXXX"
     transform="matrix(1.3333333,0,0,-1.3333333,0,190.66667)"><g
       id="g12"
       transform="scale(0.1)"><path
         d="m 1199.57,370.738 h 0.43 l 0.43,0.434 h 0.39 v 0.387 h 0.86 v 0.429 h 0.39 v -0.816 h -0.39 l -0.43,-0.434 h -0.82 l -0.43,-0.429 -0.43,0.429"
         style="fill:#666666;fill-opacity:1;fill-rule:evenodd;stroke:none"
         id="path9208"
         inkscape:connector-curvature="0" /><path
         d="m 1199.57,370.738 h 0.43 l 0.43,0.434 h 0.39 v 0.387 h 0.86 v 0.429 h 0.39 v -0.816 h -0.39 l -0.43,-0.434 h -0.82 l -0.43,-0.429 -0.43,0.429"
         style="fill:none;stroke:#000000;stroke-width:2.5;stroke-linecap:butt;stroke-linejoin:round;stroke-miterlimit:10;stroke-dasharray:none;stroke-opacity:1"
         id="path9210"
         inkscape:connector-curvature="0" /><path
         d="m 1202.07,372.809 h 0.43 v -0.387 l -0.43,0.387"
         style="fill:#666666;fill-opacity:1;fill-rule:evenodd;stroke:none"
         id="path9212"
         inkscape:connector-curvature="0" /><path
         d="m 1202.07,372.809 h 0.43 v -0.387 l -0.43,0.387"
         style="fill:none;stroke:#000000;stroke-width:2.5;stroke-linecap:butt;stroke-linejoin:round;stroke-miterlimit:10;stroke-dasharray:none;stroke-opacity:1"
         id="path9214"
         inkscape:connector-curvature="0" /><path
         d="m 1202.5,372.809 h 0.43 -0.43"
         style="fill:none;stroke:#000000;stroke-width:2.5;stroke-linecap:butt;stroke-linejoin:round;stroke-miterlimit:10;stroke-dasharray:none;stroke-opacity:1"
         id="path9216"
         inkscape:connector-curvature="0" /><path
         d="m 1202.07,372.422 h 0.43 -0.43"
         style="fill:none;stroke:#000000;stroke-width:2.5;stroke-linecap:butt;stroke-linejoin:round;stroke-miterlimit:10;stroke-dasharray:none;stroke-opacity:1"
         id="path9218"
         inkscape:connector-curvature="0" /><path
         d="m 1156.68,370.738 v 0.434 -0.434"
         style="fill:none;stroke:#000000;stroke-width:2.5;stroke-linecap:butt;stroke-linejoin:round;stroke-miterlimit:10;stroke-dasharray:none;stroke-opacity:1"
         id="path9220"
         inkscape:connector-curvature="0" /><path
         d="m 1201.25,370.738 h 0.43 -0.43"
         style="fill:none;stroke:#000000;stroke-width:2.5;stroke-linecap:butt;stroke-linejoin:round;stroke-miterlimit:10;stroke-dasharray:none;stroke-opacity:1"
         id="path9222"
         inkscape:connector-curvature="0" /><path
         d="m 1517.7,750.859 54.18,14.571 -54.22,14.449 0.04,-29.02"
         style="fill:#000000;fill-opacity:1;fill-rule:nonzero;stroke:none"
         id="path9224"
         inkscape:connector-curvature="0" /><path
         d="m 1517.73,664.77 54.15,-14.731 -54.26,-14.34 0.11,29.071"
         style="fill:#000000;fill-opacity:1;fill-rule:nonzero;stroke:none"
         id="path9226"
         inkscape:connector-curvature="0" /><path
         d="m 2213.98,475.23 54.14,14.77 -54.25,14.301 0.11,-29.071"
         style="fill:#000000;fill-opacity:1;fill-rule:nonzero;stroke:none"
         id="path9228"
         inkscape:connector-curvature="0" /><path
         d="m 1350.7,1047.11 c -109.33,-19.18 -66.29,-84.02 -47.58,-99.809 32.31,-27.262 139.54,-26.36 220.51,-24.84"
         style="fill:none;stroke:#000000;stroke-width:10;stroke-linecap:butt;stroke-linejoin:miter;stroke-miterlimit:10;stroke-dasharray:none;stroke-opacity:1"
         id="path9230"
         inkscape:connector-curvature="0" /><path
         d="m 1519.38,907.809 53.24,17.66 -54.96,11.371 1.72,-29.031"
         style="fill:#000000;fill-opacity:1;fill-rule:nonzero;stroke:none"
         id="path9232"
         inkscape:connector-curvature="0" /><path
         d="m 1570.62,1130.43 c -2.14,0 80.86,50.9 91.68,29.37 13.64,-27.14 -0.5,-37.34 -1.68,-66.44 -1.36,-33.44 -16.28,-65.94 -15.5,-79.73"
         style="fill:none;stroke:#000000;stroke-width:10;stroke-linecap:butt;stroke-linejoin:miter;stroke-miterlimit:10;stroke-dasharray:none;stroke-opacity:1"
         id="path9234"
         inkscape:connector-curvature="0" /><path
         d="m 1586.45,650.352 c 49.17,-8.59 61.83,80.429 62.5,180.937 0.11,20.781 -1.22,42.07 -2.11,63.09"
         style="fill:none;stroke:#000000;stroke-width:10;stroke-linecap:butt;stroke-linejoin:miter;stroke-miterlimit:10;stroke-dasharray:none;stroke-opacity:1"
         id="path9236"
         inkscape:connector-curvature="0" /><path
         d="m 1661.68,884.73 -15.47,53.942 -13.55,-54.453 29.02,0.511"
         style="fill:#000000;fill-opacity:1;fill-rule:nonzero;stroke:none"
         id="path9238"
         inkscape:connector-curvature="0" /><path
         d="m 1570.62,1280.55 c -94.17,-63.17 -468.63,-155.28 -946.132,-160.71"
         style="fill:none;stroke:#000000;stroke-width:10;stroke-linecap:butt;stroke-linejoin:miter;stroke-miterlimit:10;stroke-dasharray:none;stroke-opacity:1"
         id="path9240"
         inkscape:connector-curvature="0" /><path
         d="m 634.262,1134.77 -54.063,-15.16 54.371,-13.91 -0.308,29.07"
         style="fill:#000000;fill-opacity:1;fill-rule:nonzero;stroke:none"
         id="path9242"
         inkscape:connector-curvature="0" /><path
         d="m 663.238,964.02 c 450.312,5.468 777.352,93.28 890.552,156.21 6.29,3.48 11.91,6.88 16.83,10.2 0,0 -1.36,-1.21 -4.92,-3.32 -3.59,-2.07 11.72,7.93 11.72,7.93 l 9.22,5.35"
         style="fill:none;stroke:#000000;stroke-width:10;stroke-linecap:butt;stroke-linejoin:miter;stroke-miterlimit:10;stroke-dasharray:none;stroke-opacity:1"
         id="path9244"
         inkscape:connector-curvature="0" /><path
         d="m 673.32,949.879 -54.371,13.871 54.02,15.199 0.351,-29.07"
         style="fill:#000000;fill-opacity:1;fill-rule:nonzero;stroke:none"
         id="path9246"
         inkscape:connector-curvature="0" /><path
         d="m 501.52,804.84 c 0,2.93 0.32,5.82 0.859,8.601 0.59,2.731 1.41,5.43 2.5,7.969 1.062,2.539 2.391,4.961 3.91,7.219 1.52,2.269 3.242,4.34 5.191,6.293 1.918,1.918 4.032,3.629 6.29,5.156 2.269,1.563 4.652,2.852 7.23,3.942 2.539,1.058 5.199,1.921 7.969,2.46 2.769,0.59 5.621,0.86 8.551,0.86 2.929,0 5.781,-0.27 8.558,-0.86 2.774,-0.539 5.434,-1.402 7.973,-2.46 2.57,-1.09 4.961,-2.379 7.219,-3.942 2.269,-1.527 4.378,-3.238 6.289,-5.156 1.961,-1.953 3.671,-4.024 5.203,-6.293 1.519,-2.258 2.847,-4.68 3.937,-7.219 1.063,-2.539 1.879,-5.238 2.461,-7.969 0.551,-2.781 0.86,-5.671 0.86,-8.601 0,-2.93 -0.309,-5.781 -0.86,-8.551 -0.582,-2.769 -1.398,-5.43 -2.461,-7.969 -1.09,-2.539 -2.418,-4.961 -3.937,-7.23 -1.532,-2.262 -3.242,-4.371 -5.203,-6.289 -1.911,-1.91 -4.02,-3.672 -6.289,-5.192 -2.258,-1.519 -4.649,-2.847 -7.219,-3.91 -2.539,-1.09 -5.199,-1.91 -7.973,-2.5 -2.777,-0.539 -5.629,-0.859 -8.558,-0.859 -2.93,0 -5.782,0.32 -8.551,0.859 -1.52,0.321 -3.008,0.711 -4.489,1.18"
         style="fill:none;stroke:#000000;stroke-width:10;stroke-linecap:butt;stroke-linejoin:miter;stroke-miterlimit:10;stroke-dasharray:none;stroke-opacity:1"
         id="path9248"
         inkscape:connector-curvature="0" /><path
         d="m 545.621,769.531 -40.742,18.789 25.902,-36.64 14.84,17.851"
         style="fill:#000000;fill-opacity:1;fill-rule:nonzero;stroke:none"
         id="path9250"
         inkscape:connector-curvature="0" /><path
         d="m 1123.24,550.621 902.38,-0.391"
         style="fill:none;stroke:#000000;stroke-width:10;stroke-linecap:butt;stroke-linejoin:miter;stroke-miterlimit:10;stroke-dasharray:none;stroke-opacity:1"
         id="path9252"
         inkscape:connector-curvature="0" /><path
         d="m 1133.16,536.09 -54.21,14.531 54.21,14.539 v -29.07"
         style="fill:#000000;fill-opacity:1;fill-rule:nonzero;stroke:none"
         id="path9254"
         inkscape:connector-curvature="0" /><path
         d="M 1304.49,402.891 2238.95,402.5"
         style="fill:none;stroke:#000000;stroke-width:10;stroke-linecap:butt;stroke-linejoin:miter;stroke-miterlimit:10;stroke-dasharray:none;stroke-opacity:1"
         id="path9256"
         inkscape:connector-curvature="0" /><path
         d="m 1314.41,388.359 -54.21,14.532 54.21,14.488 v -29.02"
         style="fill:#000000;fill-opacity:1;fill-rule:nonzero;stroke:none"
         id="path9258"
         inkscape:connector-curvature="0" /><path
         d="m 1163.95,378.359 c 149.49,-11.089 451.6,-26.558 874.25,-31.597"
         style="fill:none;stroke:#000000;stroke-width:10;stroke-linecap:butt;stroke-linejoin:miter;stroke-miterlimit:10;stroke-dasharray:none;stroke-opacity:1"
         id="path9260"
         inkscape:connector-curvature="0" /><path
         d="m 2028.05,332.66 54.45,13.59 -53.95,15.469 -0.5,-29.059"
         style="fill:#000000;fill-opacity:1;fill-rule:nonzero;stroke:none"
         id="path9262"
         inkscape:connector-curvature="0" /><path
         d="m 1586.45,650.352 c 180.46,10.078 271.79,-53.012 599.49,-65.274"
         style="fill:none;stroke:#000000;stroke-width:10;stroke-linecap:butt;stroke-linejoin:miter;stroke-miterlimit:10;stroke-dasharray:none;stroke-opacity:1"
         id="path9264"
         inkscape:connector-curvature="0" /><path
         d="m 858.789,772.77 c 274.181,-3.508 426.721,-4.68 670.471,-6.719"
         style="fill:none;stroke:#000000;stroke-width:9.64525032;stroke-linecap:butt;stroke-linejoin:miter;stroke-miterlimit:10;stroke-dasharray:none;stroke-opacity:1"
         id="path9266"
         inkscape:connector-curvature="0" /><path
         d="m 2175.43,571.68 54.77,12.07 -53.48,16.949 -1.29,-29.019"
         style="fill:#000000;fill-opacity:1;fill-rule:nonzero;stroke:none"
         id="path9268"
         inkscape:connector-curvature="0" /><path
         d="m 1529.3,650.23 c -119.57,1.372 -372.03,-4.449 -560.39,-1.992 C 880,651.25 791.762,652.809 719.609,716.02 700.781,735.16 650.98,794.449 618.59,756.211 581.051,711.879 692.109,615.039 692.109,615.039 808.871,501.09 1156.21,383.52 1178.16,326.52 c 4.14,-72.071 0,-68.122 0,-130.11"
         style="fill:none;stroke:#000000;stroke-width:10;stroke-linecap:butt;stroke-linejoin:miter;stroke-miterlimit:10;stroke-dasharray:none;stroke-opacity:1"
         id="path9270"
         inkscape:connector-curvature="0" /><path
         d="m 971.84,449.059 c -33.719,33.992 -35.078,89.769 4.64,102.82 35.98,11.793 88.68,-23.25 138.64,-38.438 151.64,-37.113 800.47,-18.05 1110.43,-22.972"
         style="fill:none;stroke:#000000;stroke-width:10;stroke-linecap:butt;stroke-linejoin:miter;stroke-miterlimit:10;stroke-dasharray:none;stroke-opacity:1"
         id="path9272"
         inkscape:connector-curvature="0" /><path
         d="m 1517.73,660.551 54.15,-14.77 -54.26,-14.301 0.11,29.071"
         style="fill:#000000;fill-opacity:1;fill-rule:nonzero;stroke:none"
         id="path9274"
         inkscape:connector-curvature="0" /><path
         d="M 795.391,540.941 C 732.66,594.059 745.23,668.281 791.328,657.07 903.949,630.512 972.27,629.301 1521.84,644.691"
         style="fill:none;stroke:#000000;stroke-width:10;stroke-linecap:butt;stroke-linejoin:miter;stroke-miterlimit:10;stroke-dasharray:none;stroke-opacity:1"
         id="path9276"
         inkscape:connector-curvature="0" /><path
         d="m 358.051,884.961 c 0,2.93 0.269,5.777 0.859,8.559 0.539,2.769 1.399,5.429 2.461,7.96 1.09,2.54 2.379,4.969 3.899,7.231 1.57,2.269 3.281,4.379 5.199,6.289 1.953,1.91 4.019,3.672 6.293,5.199 2.258,1.52 4.687,2.852 7.218,3.903 2.54,1.097 5.239,1.918 7.969,2.457 2.781,0.589 5.629,0.902 8.602,0.902 2.929,0 5.777,-0.313 8.551,-0.902 2.777,-0.539 5.429,-1.36 7.968,-2.457 2.539,-1.051 4.961,-2.383 7.231,-3.903 2.258,-1.527 4.371,-3.289 6.289,-5.199 1.91,-1.91 3.672,-4.02 5.191,-6.289 1.52,-2.262 2.848,-4.691 3.91,-7.231 1.09,-2.531 1.911,-5.191 2.5,-7.96 0.539,-2.782 0.86,-5.629 0.86,-8.559 0,-2.973 -0.321,-5.82 -0.86,-8.59 -0.589,-2.742 -1.41,-5.43 -2.5,-7.973 -1.062,-2.539 -2.39,-4.957 -3.91,-7.226 -1.519,-2.262 -3.281,-4.371 -5.191,-6.293 -1.918,-1.91 -4.031,-3.668 -6.289,-5.188 -2.27,-1.531 -4.692,-2.812 -7.231,-3.91 -2.539,-1.051 -5.191,-1.91 -7.968,-2.461 -2.774,-0.59 -5.622,-0.859 -8.551,-0.859 -2.973,0 -5.821,0.269 -8.602,0.859 -1.519,0.309 -3,0.7 -4.449,1.168"
         style="fill:none;stroke:#000000;stroke-width:10;stroke-linecap:butt;stroke-linejoin:miter;stroke-miterlimit:10;stroke-dasharray:none;stroke-opacity:1"
         id="path9278"
         inkscape:connector-curvature="0" /><path
         d="m 402.148,849.648 -40.777,18.75 25.93,-36.636 14.847,17.886"
         style="fill:#000000;fill-opacity:1;fill-rule:nonzero;stroke:none"
         id="path9280"
         inkscape:connector-curvature="0" /><g
         id="g9282"
         transform="scale(10)"><text
           transform="matrix(1,0,0,-1,118.114,78)"
           style="font-variant:normal;font-size:8px;font-family:f-0;-inkscape-font-specification:f-0-0;writing-mode:lr-tb;fill:#000000;fill-opacity:1;fill-rule:nonzero;stroke:none"
           id="text9290"><tspan
             x="0 4.448 10.224 15.56 21.360157"
             y="0"
             sodipodi:role="line"
             id="tspan9284">nNECC</tspan><tspan
             x="-24.507401 -18.7314 -13.3954 -7.6194"
             y="11.9191"
             sodipodi:role="line"
             id="tspan9286">NECC</tspan><tspan
             x="44.121101 48.569099 53.905102 59.265247"
             y="21.88238"
             sodipodi:role="line"
             id="tspan9288">nSEC</tspan></text>
<text
           transform="matrix(0.99949464,-0.03178773,0,-0.99949464,175.338,28.3242)"
           style="font-variant:normal;font-size:8.00404453px;font-family:f-0;-inkscape-font-specification:f-0-0;writing-mode:lr-tb;fill:#000000;fill-opacity:1;fill-rule:nonzero;stroke:none"
           id="text9294"><tspan
             x="0 5.3386979 10.677396 16.480206"
             y="0"
             sodipodi:role="line"
             id="tspan9292">SEUC</tspan></text>
<text
           transform="matrix(0.999987,0,0,-1,203.179,42.1297)"
           style="font-variant:normal;font-size:8.00004959px;font-family:f-0;-inkscape-font-specification:f-0-0;writing-mode:lr-tb;fill:#000000;fill-opacity:1;fill-rule:nonzero;stroke:none"
           id="text9298"><tspan
             x="0 5.3360333 11.112069"
             y="0"
             sodipodi:role="line"
             id="tspan9296">EUC</tspan></text>
<text
           transform="matrix(0.99476795,0.12197601,0.10216032,-0.98985507,97.4102,103.561)"
           style="font-variant:normal;font-size:8.01146984px;font-family:f-0;-inkscape-font-specification:f-0-0;writing-mode:lr-tb;fill:#000000;fill-opacity:1;fill-rule:nonzero;stroke:none"
           id="text9302"><tspan
             x="0 5.7842813 11.127932"
             y="0"
             sodipodi:role="line"
             id="tspan9300">NEC</tspan></text>
<text
           transform="matrix(1,0,0,-1,129.549,95.9332)"
           style="font-variant:normal;font-size:8px;font-family:f-0;-inkscape-font-specification:f-0-0;writing-mode:lr-tb;fill:#000000;fill-opacity:1;fill-rule:nonzero;stroke:none"
           id="text9308"><tspan
             x="0 5.776 10.767969"
             y="0"
             sodipodi:role="line"
             id="tspan9304">CVC</tspan><tspan
             x="94.103104 100.3271"
             y="39.625801"
             sodipodi:role="line"
             id="tspan9306">GC</tspan></text>
<text
           transform="matrix(0.835289,-0.549811,-0.549811,-0.835289,70.1207,51.1098)"
           style="font-variant:normal;font-size:7.99999952px;font-family:f-0;-inkscape-font-specification:f-0-0;writing-mode:lr-tb;fill:#000000;fill-opacity:1;fill-rule:nonzero;stroke:none"
           id="text9312"><tspan
             x="0 5.7759995 11.112"
             y="0"
             sodipodi:role="line"
             id="tspan9310">NBC</tspan></text>
<text
           transform="matrix(1,0,0,-1,118.455,19.3027)"
           style="font-variant:normal;font-size:8px;font-family:f-0;-inkscape-font-specification:f-0-0;writing-mode:lr-tb;fill:#000000;fill-opacity:1;fill-rule:nonzero;stroke:none"
           id="text9316"><tspan
             x="0 5.776 11.112 16.888"
             y="0"
             sodipodi:role="line"
             id="tspan9314">NBUC</tspan></text>
<text
           transform="matrix(0.99951452,0.0314755,0,-0.99950452,119.649,56.6488)"
           style="font-variant:normal;font-size:8.00393581px;font-family:f-0;-inkscape-font-specification:f-0-0;writing-mode:lr-tb;fill:#000000;fill-opacity:1;fill-rule:nonzero;stroke:none"
           id="text9320"><tspan
             x="0 5.7788415 11.117467 16.896309"
             y="0"
             sodipodi:role="line"
             id="tspan9318">NEUC</tspan></text>
<text
           transform="matrix(1,0,0,-1,133.355,41.6496)"
           style="font-variant:normal;font-size:8px;font-family:f-0;-inkscape-font-specification:f-0-0;writing-mode:lr-tb;fill:#000000;fill-opacity:1;fill-rule:nonzero;stroke:none"
           id="text9324"><tspan
             x="0 4 9.3360004 14.672"
             y="0"
             sodipodi:role="line"
             id="tspan9322">cSEC</tspan></text>
</g></g></g></svg>